# xmcd
#
# Track frame offsets:
#	150
#	6054
#	26522
#	59510
#	81115
#	106315
#	143400
#	160090
#	187092
#	231112
#	249457
#	283125
#
# Disc length: 4565 seconds
#
# Revision: 1
# Processed by: cddbd v1.5.1PL0 Copyright (c) Steve Scherf et al.
# Submitted via: audiograbber 1.81.03
#
DISCID=9911d30c
DTITLE=Family Style - Live Style
DYEAR=1900
DGENRE=Blues
TTITLE0=Back In The Chicken Shack
TTITLE1=Rollin' Over New Orleans
TTITLE2=Livin' Lovin' Drinkin'
TTITLE3=Pub Crawl
TTITLE4=Every Time You Smile
TTITLE5=Prisoner Of The Blues
TTITLE6=Mellow Down Easy
TTITLE7=Family Style
TTITLE8=Caledonia
TTITLE9=Big Boss Man
TTITLE10=Blues Jam
TTITLE11=Little Bluebird
EXTD=
EXTT0=
EXTT1=
EXTT2=
EXTT3=
EXTT4=
EXTT5=
EXTT6=
EXTT7=
EXTT8=
EXTT9=
EXTT10=
EXTT11=
PLAYORDER=
